<?xml version="1.0" encoding="UTF-8"?>
<svg version="1.1" xmlns="http://www.w3.org/2000/svg" width="192" height="192">
<path d="M0 0 C63.36 0 126.72 0 192 0 C192 63.36 192 126.72 192 192 C128.64 192 65.28 192 0 192 C0 128.64 0 65.28 0 0 Z " fill="#1D1D1D" transform="translate(0,0)"/>
<path d="M0 0 C63.36 0 126.72 0 192 0 C192 63.36 192 126.72 192 192 C128.64 192 65.28 192 0 192 C0 128.64 0 65.28 0 0 Z M67 12 C66.10925781 12.27714844 65.21851563 12.55429688 64.30078125 12.83984375 C52.43864044 16.98490745 41.79054357 25.20945643 33 34 C32.23042969 34.76957031 31.46085937 35.53914063 30.66796875 36.33203125 C12.35791364 55.6402495 7.26759271 78.39985298 7.7265625 104.29296875 C8.69407138 127.9490399 22.78521384 148.45190398 39.33203125 164.22265625 C58.21757562 180.40566957 81.63383338 185.75952281 106 184 C127.14243009 181.69310207 144.84525402 171.66270878 160 157 C160.6909375 156.33484375 161.381875 155.6696875 162.09375 154.984375 C176.82992594 139.66343018 184.62530985 117.71408722 184.4375 96.75 C184.43065186 95.56849365 184.42380371 94.3869873 184.41674805 93.16967773 C184.246629 83.86792527 183.10974473 75.77865644 180 67 C179.63777344 65.94167969 179.27554688 64.88335937 178.90234375 63.79296875 C174.39814527 51.89883107 166.85729914 42.00566261 158 33 C157.24074219 32.22785156 156.48148438 31.45570312 155.69921875 30.66015625 C138.27483764 13.97723817 115.95023976 7.49156992 92.33691406 7.57397461 C83.35736913 7.76956464 75.5050594 9.10444597 67 12 Z " fill="#FDFDFD" transform="translate(0,0)"/>
<path d="M0 0 C13.73778456 0.27676855 25.30618296 4.37225137 36 13 C36.66902344 13.52980469 37.33804688 14.05960938 38.02734375 14.60546875 C41.46225639 17.43037576 44.44672562 20.3232849 47 24 C47 24.66 47 25.32 47 26 C47.66 26 48.32 26 49 26 C49.22945312 25.27554688 49.45890625 24.55109375 49.6953125 23.8046875 C54.24255791 14.02947132 66.98760082 6.90131325 76.55859375 2.94140625 C82.90657343 0.81864184 89.34507393 0.33160285 96 0 C96.74983124 13.24701861 91.51744858 27.73076917 82.9921875 37.84765625 C73.6538682 47.93670318 63.49276058 54.68236828 50 58 C39.52732616 58.33246584 28.30798586 52.17146653 20.4375 45.5 C19.26973652 44.35528449 18.12272392 43.18892226 17 42 C16.4121875 41.43152344 15.824375 40.86304688 15.21875 40.27734375 C6.01990971 30.77591003 -0.09463556 16.48318337 -0.1875 3.25 C-0.125625 2.1775 -0.06375 1.105 0 0 Z " fill="#A1BD9F" transform="translate(48,86)"/>
<path d="M0 0 C0.33 0 0.66 0 1 0 C1.1698905 2.49981738 1.33597953 4.99979601 1.5 7.5 C1.57154297 8.54414062 1.57154297 8.54414062 1.64453125 9.609375 C2.11385244 16.85033051 2.34700302 23.62329442 0.625 30.75 C0.36976563 31.83796875 0.11453125 32.9259375 -0.1484375 34.046875 C-0.8838539 36.59721812 -1.75441247 38.67490328 -3 41 C-3.36784131 42.3242287 -3.71202981 43.65613912 -4 45 C-4.66 45 -5.32 45 -6 45 C-5.9175 45.825 -5.835 46.65 -5.75 47.5 C-6.07235989 52.01303847 -7.79294651 55.11795056 -10 59 C-10.66 59 -11.32 59 -12 59 C-12.37125 60.0209375 -12.37125 60.0209375 -12.75 61.0625 C-15.75154004 68.11611909 -18.47836346 71.69616417 -24.65234375 76.18359375 C-26.96155252 77.97025278 -28.83544366 79.85784501 -30.8125 82 C-38.37628516 89.77472738 -49.47914194 95.40344454 -60 98 C-60.92167969 98.32097656 -61.84335938 98.64195312 -62.79296875 98.97265625 C-79.54917445 104.35238167 -98.48145153 104.03150769 -115 98 C-116.22847656 97.57976562 -117.45695312 97.15953125 -118.72265625 96.7265625 C-127.6536123 93.51958155 -127.6536123 93.51958155 -130 90 C-133.55672179 88.7811879 -133.55672179 88.7811879 -137 88 C-137 87.34 -137 86.68 -137 86 C-137.56847656 85.73832031 -138.13695312 85.47664063 -138.72265625 85.20703125 C-145.02990181 81.86408292 -153.67588506 75.97234483 -156 69 C-156.66 69 -157.32 69 -158 69 C-159.05370523 67.36675689 -160.03567924 65.68756133 -161 64 C-161.95691531 62.64483092 -162.91540599 61.29077361 -163.875 59.9375 C-168.65993555 52.77205901 -173.00087825 44.80772862 -172 36 C-169.63365042 38.36634958 -169.00195289 40.31569361 -167.8125 43.4375 C-158.57329478 65.86794041 -140.79395773 80.81631738 -118.87353516 90.234375 C-100.19513824 97.86735034 -75.5437987 97.49187038 -56.76269531 90.12207031 C-32.90920536 79.69878584 -14.78919629 62.13243193 -5.13867188 37.83105469 C-0.66721668 25.48692462 -0.09356111 13.0288436 0 0 Z " fill="#E8E8E8" transform="translate(184,88)"/>
<path d="M0 0 C2.742555 0.35407165 3.82733719 0.81574908 5.74609375 2.86328125 C11.82734301 11.66915489 19.65255332 24.76615346 18 36 C15.76953125 37.84375 15.76953125 37.84375 12.8125 39.5 C8.56061386 42.00401027 5.24736248 44.30472545 2 48 C-1.18649794 46.54434981 -3.76287009 44.74189282 -6.5 42.5625 C-9.7994018 39.9409398 -9.7994018 39.9409398 -13.25 37.52734375 C-15 36 -15 36 -15.53125 34.125 C-15.33870034 21.03162344 -8.63552872 9.43883371 0 0 Z " fill="#A0BB9E" transform="translate(95,49)"/>
<path d="M0 0 C2.36634958 2.36634958 2.99804711 4.31569361 4.1875 7.4375 C13.42670522 29.86794041 31.20604227 44.81631738 53.12646484 54.234375 C72.52244233 62.1605915 97.15737501 61.13206866 116.5625 53.62109375 C118.41683196 52.77360609 120.25600829 51.89080382 122.06640625 50.953125 C124 50 124 50 126 50 C126 50.99 126 51.98 126 53 C99.9267855 63.90117215 76.42090165 66.72237635 49.59326172 56.13574219 C44.75382448 54.22889544 40.11210923 52.91287665 35 52 C35 51.34 35 50.68 35 50 C34.43152344 49.73832031 33.86304688 49.47664063 33.27734375 49.20703125 C26.97009819 45.86408292 18.32411494 39.97234483 16 33 C15.34 33 14.68 33 14 33 C12.94629477 31.36675689 11.96432076 29.68756133 11 28 C10.04308469 26.64483092 9.08459401 25.29077361 8.125 23.9375 C3.34006445 16.77205901 -1.00087825 8.80772862 0 0 Z " fill="#DFDFDF" transform="translate(12,124)"/>
<path d="M0 0 C0.33 0 0.66 0 1 0 C1.1698905 2.49981738 1.33597953 4.99979601 1.5 7.5 C1.54769531 8.19609375 1.59539062 8.8921875 1.64453125 9.609375 C2.11385244 16.85033051 2.34700302 23.62329442 0.625 30.75 C0.36976563 31.83796875 0.11453125 32.9259375 -0.1484375 34.046875 C-0.8838539 36.59721812 -1.75441247 38.67490328 -3 41 C-3.36784131 42.3242287 -3.71202981 43.65613912 -4 45 C-4.66 45 -5.32 45 -6 45 C-5.9175 45.825 -5.835 46.65 -5.75 47.5 C-6.07235989 52.01303847 -7.79294651 55.11795056 -10 59 C-10.66 59 -11.32 59 -12 59 C-12.33 59.99 -12.66 60.98 -13 62 C-13.639375 62.144375 -14.27875 62.28875 -14.9375 62.4375 C-15.618125 62.623125 -16.29875 62.80875 -17 63 C-18.06716704 64.79932579 -18.06716704 64.79932579 -19 67 C-21 69.75 -21 69.75 -23 72 C-23.66 72 -24.32 72 -25 72 C-25.33 72.99 -25.66 73.98 -26 75 C-27.5234375 76.421875 -27.5234375 76.421875 -29.375 77.75 C-29.98085937 78.19859375 -30.58671875 78.6471875 -31.2109375 79.109375 C-33 80 -33 80 -36 79 C-35.154375 78.24976563 -34.30875 77.49953125 -33.4375 76.7265625 C-14.23886316 59.50392239 -1.76030603 39.09247543 -0.31054688 12.90307617 C-0.13578553 8.60235204 -0.03090817 4.30411416 0 0 Z M-36 80 C-37.36983503 83.16115776 -37.9890638 83.9927092 -41 86 C-43.6875 86.125 -43.6875 86.125 -46 86 C-38.6 80 -38.6 80 -36 80 Z " fill="#DBDBDB" transform="translate(184,88)"/>
<path d="M0 0 C4.11100765 1.32336461 8.07464405 2.84637579 12.0625 4.5 C31.4787208 11.91227348 55.21248037 11.11073951 74.5625 3.62109375 C76.41683196 2.77360609 78.25600829 1.89080382 80.06640625 0.953125 C82 0 82 0 84 0 C84 0.99 84 1.98 84 3 C56.77166883 14.38412472 33.01247909 16.32574022 5.16796875 5.3046875 C3.42389277 4.58641207 1.68706149 3.84353075 0 3 C0 2.01 0 1.02 0 0 Z " fill="#C5C5C5" transform="translate(54,174)"/>
<path d="M0 0 C0.33 0.99 0.66 1.98 1 3 C-0.36328125 5.26171875 -0.36328125 5.26171875 -2.3125 7.6875 C-2.94800781 8.49574219 -3.58351562 9.30398437 -4.23828125 10.13671875 C-4.81964844 10.75160156 -5.40101563 11.36648437 -6 12 C-6.66 12 -7.32 12 -8 12 C-8.33 12.99 -8.66 13.98 -9 15 C-10.5234375 16.421875 -10.5234375 16.421875 -12.375 17.75 C-12.98085937 18.19859375 -13.58671875 18.6471875 -14.2109375 19.109375 C-16 20 -16 20 -19 19 C-18.13117188 18.21496094 -17.26234375 17.42992187 -16.3671875 16.62109375 C-10.55797065 11.33738862 -4.90179311 6.16225419 0 0 Z M-19 20 C-20.36983503 23.16115776 -20.9890638 23.9927092 -24 26 C-26.6875 26.125 -26.6875 26.125 -29 26 C-21.6 20 -21.6 20 -19 20 Z " fill="#C5C5C5" transform="translate(167,148)"/>
<path d="M0 0 C0.94875 0.825 1.8975 1.65 2.875 2.5 C12.8645453 11.06750327 12.8645453 11.06750327 24 18 C23.67 18.66 23.34 19.32 23 20 C15.09881187 17.20881941 7.38709566 11.42975934 2 5 C0.6875 2.1875 0.6875 2.1875 0 0 Z " fill="#C7C7C7" transform="translate(30,155)"/>
<path d="M0 0 C0.33 0 0.66 0 1 0 C1.2475 0.928125 1.495 1.85625 1.75 2.8125 C3.06454245 6.16458325 3.97963384 7.1877803 7 9 C4.4345406 11.5654594 2.52313332 11.54046087 -1 12 C-0.34 13.32 0.32 14.64 1 16 C-3.455 14.02 -3.455 14.02 -8 12 C-7.34 10.68 -6.68 9.36 -6 8 C-4.35 8.33 -2.7 8.66 -1 9 C-0.67 6.03 -0.34 3.06 0 0 Z " fill="#232622" transform="translate(79,80)"/>
<path d="M0 0 C-2.97 0.99 -5.94 1.98 -9 3 C-9 3.66 -9 4.32 -9 5 C-12.80419286 7.91490102 -15.58906677 8.34321758 -20.3125 8.1875 C-21.91544922 8.14689453 -21.91544922 8.14689453 -23.55078125 8.10546875 C-24.76314453 8.05326172 -24.76314453 8.05326172 -26 8 C-22.82250775 6.29370941 -19.61975819 5.15958895 -16.1875 4.0625 C-12.6749359 2.92305847 -9.28474968 1.74668895 -5.9375 0.1875 C-3 -1 -3 -1 0 0 Z " fill="#DDDDDD" transform="translate(138,178)"/>
<path d="M0 0 C1.07230715 3.21692145 0.93694604 4.24022299 0.1875 7.4375 C0.01605469 8.19933594 -0.15539062 8.96117188 -0.33203125 9.74609375 C-1.00528989 12.0178495 -1.88441801 13.9139861 -3 16 C-3.556875 17.11375 -3.556875 17.11375 -4.125 18.25 C-4.41375 18.8275 -4.7025 19.405 -5 20 C-5.33227933 14.35125145 -5.34980391 10.76702865 -2 6 C-1.28856912 4.01548229 -0.61008664 2.01797888 0 0 Z " fill="#E5E5E5" transform="translate(184,113)"/>
<path d="M0 0 C0.66 0.33 1.32 0.66 2 1 C1.01 1.33 0.02 1.66 -1 2 C-1.309375 2.63421875 -1.61875 3.2684375 -1.9375 3.921875 C-3.25580282 6.50032022 -4.40463537 7.0477355 -7 8.25 C-7.70125 8.58515625 -8.4025 8.9203125 -9.125 9.265625 C-11 10 -11 10 -13 10 C-13 9.01 -13 8.02 -13 7 C-11.63875 6.62875 -11.63875 6.62875 -10.25 6.25 C-6.85392584 4.94381763 -5.44083812 3.60917178 -3 1 C-2.01 0.67 -1.02 0.34 0 0 Z " fill="#DBDBDB" transform="translate(151,167)"/>
<path d="M0 0 C0.33 0.99 0.66 1.98 1 3 C-0.43359375 5.26171875 -0.43359375 5.26171875 -2.4375 7.6875 C-3.09621094 8.49574219 -3.75492188 9.30398437 -4.43359375 10.13671875 C-4.95050781 10.75160156 -5.46742188 11.36648437 -6 12 C-6.66 11.67 -7.32 11.34 -8 11 C-7.04454634 9.53977837 -6.08553322 8.08188532 -5.125 6.625 C-4.59132812 5.81289062 -4.05765625 5.00078125 -3.5078125 4.1640625 C-2 2 -2 2 0 0 Z " fill="#CDCDCD" transform="translate(167,148)"/>
<path d="M0 0 C0.556875 0.70125 1.11375 1.4025 1.6875 2.125 C4.09124732 5.11344261 6.53810432 8.05940238 9 11 C8.01 11.33 7.02 11.66 6 12 C4.98829382 10.75945552 3.99102203 9.5071298 3 8.25 C2.443125 7.55390625 1.88625 6.8578125 1.3125 6.140625 C0 4 0 4 0 0 Z " fill="#C7C7C7" transform="translate(21,143)"/>
<path d="M0 0 C0.33 0 0.66 0 1 0 C0.125 7.75 0.125 7.75 -1 10 C-1.66 10 -2.32 10 -3 10 C-3 10.66 -3 11.32 -3 12 C-3.66 12 -4.32 12 -5 12 C-3.68938409 7.76570244 -2.05643741 3.92592596 0 0 Z " fill="#CDCDCD" transform="translate(178,128)"/>
<path d="M0 0 C0 0.99 0 1.98 0 3 C-4.95 4.485 -4.95 4.485 -10 6 C-10.66 5.34 -11.32 4.68 -12 4 C-10.3767313 3.3291288 -8.75132422 2.66342971 -7.125 2 C-6.22007812 1.62875 -5.31515625 1.2575 -4.3828125 0.875 C-2 0 -2 0 0 0 Z " fill="#BCBCBC" transform="translate(138,174)"/>
<path d="M0 0 C0.99 0.33 1.98 0.66 3 1 C3.71247732 2.6476038 4.37400383 4.31763529 5 6 C5.95824253 7.36365283 6.94721175 8.70794169 8 10 C7.67 10.66 7.34 11.32 7 12 C3.95706926 8.46362104 1.28538605 5.08963819 -1 1 C-0.67 0.67 -0.34 0.34 0 0 Z " fill="#E6E6E6" transform="translate(18,142)"/>
<path d="M0 0 C2.95183101 2.95183101 3.08663988 5.95511947 4 10 C3.01 9.67 2.02 9.34 1 9 C-0.4783226 6.04335481 -0.06032783 3.25770263 0 0 Z " fill="#C6C6C6" transform="translate(12,124)"/>
<path d="M0 0 C0.33 0 0.66 0 1 0 C2 3 3 6 4 9 C2.68 9.33 1.36 9.66 0 10 C0 6.7 0 3.4 0 0 Z " fill="#2E352E" transform="translate(79,80)"/>
<path d="M0 0 C0 0.66 0 1.32 0 2 C-4.625 4.125 -4.625 4.125 -8 3 C-3.375 0 -3.375 0 0 0 Z " fill="#CACACA" transform="translate(128,179)"/>
<path d="M0 0 C0.33 0.66 0.66 1.32 1 2 C0.34 1.67 -0.32 1.34 -1 1 C-0.67 0.67 -0.34 0.34 0 0 Z M-3 2 C-2.34 2.33 -1.68 2.66 -1 3 C-2.32 4.65 -3.64 6.3 -5 8 C-5.99 7.67 -6.98 7.34 -8 7 C-6.35 5.35 -4.7 3.7 -3 2 Z " fill="#E6E6E6" transform="translate(162,158)"/>
<path d="M0 0 C1.32 0 2.64 0 4 0 C4 0.66 4 1.32 4 2 C2.02 2.99 0.04 3.98 -2 5 C-1.125 1.125 -1.125 1.125 0 0 Z " fill="#9CB39A" transform="translate(115,133)"/>
<path d="M0 0 C0.99 0.33 1.98 0.66 3 1 C3 2.98 3 4.96 3 7 C1.68 6.01 0.36 5.02 -1 4 C-0.67 2.68 -0.34 1.36 0 0 Z " fill="#99AF97" transform="translate(69,127)"/>
</svg>
