<?xml version="1.0" encoding="UTF-8"?>
<svg version="1.1" xmlns="http://www.w3.org/2000/svg" width="737" height="736">
<path d="M0 0 C243.21 0 486.42 0 737 0 C737 242.88 737 485.76 737 736 C493.79 736 250.58 736 0 736 C0 493.12 0 250.24 0 0 Z " fill="#2D2F30" transform="translate(0,0)"/>
<path d="M0 0 C38.33846198 -1.18166492 76.92268913 13.52541475 105.1875 39.4375 C107.14148551 41.27537213 109.070441 43.13616168 111 45 C111.92554688 45.86238281 112.85109375 46.72476563 113.8046875 47.61328125 C121.24096202 54.7230338 127.12797009 62.5838024 133 71 C135.49059564 68.58906093 137.68482806 66.20159403 139.6875 63.375 C143.46311935 58.2717938 147.66453094 53.63122199 152 49 C152.86238281 48.06027344 153.72476563 47.12054688 154.61328125 46.15234375 C178.94935104 20.28292117 217.34644652 1.13885521 253.14990234 -0.07275391 C257.76939589 -0.15529814 262.38136217 -0.10796816 267 0 C265.55643539 45.34783984 249.17401696 87.3379694 216.046875 119.203125 C193.59367717 138.91394752 162.46459979 158.80307398 131.68359375 160.14453125 C128.28660771 159.76005214 125.27979514 158.98255466 122 158 C121.16017578 157.76087891 120.32035156 157.52175781 119.45507812 157.27539062 C92.71189746 149.54795133 70.6388263 136.39725841 50 118 C49.22269531 117.30777344 48.44539063 116.61554688 47.64453125 115.90234375 C17.8748199 87.75939258 2.64044424 47.17181132 0 7 C-0.05447716 4.66125777 -0.04044773 2.33974585 0 0 Z " fill="#A3C2A2" transform="translate(237,345)"/>
<path d="M0 0 C17.28268016 7.84542718 29.59461153 34.39235067 36.20507812 51.03369141 C42.29351999 67.44209374 46.21742357 83.48647911 47 101 C46.49774902 101.30591064 45.99549805 101.61182129 45.47802734 101.92700195 C31.30485422 110.60310326 18.276967 119.80773029 6.0859375 131.125 C4.13236262 132.88102237 2.12647878 134.46046785 0 136 C-0.73089844 135.21689453 -0.73089844 135.21689453 -1.4765625 134.41796875 C-14.45133115 120.94779984 -30.06224776 110.61760911 -46 101 C-44.49400706 63.27487675 -26.53214147 26.53214147 0 0 Z " fill="#A3C2A2" transform="translate(370,239)"/>
<path d="M0 0 C243.21 0 486.42 0 737 0 C737 1.32 737 2.64 737 4 C494.45 4 251.9 4 2 4 C2 245.56 2 487.12 2 736 C1.34 736 0.68 736 0 736 C0 493.12 0 250.24 0 0 Z " fill="#17181A" transform="translate(0,0)"/>
<path d="M0 0 C0.66 0.66 1.32 1.32 2 2 C1.67 2.99 1.34 3.98 1 5 C-0.98 5 -2.96 5 -5 5 C-3.35 3.35 -1.7 1.7 0 0 Z " fill="#313A33" transform="translate(442,472)"/>
<path d="M0 0 C0.99 0 1.98 0 3 0 C2.75 1.875 2.75 1.875 2 4 C-0.0625 5.25 -0.0625 5.25 -2 6 C-1.125 1.125 -1.125 1.125 0 0 Z " fill="#313A32" transform="translate(413,369)"/>
<path d="M0 0 C-1.28965176 1.37562854 -2.62689293 2.70766393 -4 4 C-4.66 4 -5.32 4 -6 4 C-6 3.34 -6 2.68 -6 2 C-6.66 1.67 -7.32 1.34 -8 1 C-2.25 -1.125 -2.25 -1.125 0 0 Z " fill="#9EB49F" transform="translate(457,353)"/>
</svg>
